PathFileType	4	(X/Y/Z)	C:/Users/beibeiliu/ov580/test_trc\sequence.39_training_dense_left.trc
DataRate	CameraRate	NumFrames	NumMarkers	Units	OrigDataRate	OrigDataStartFrame	OrigNumFrames
120	120	20	19	mm	120	55	82
Frame#	Time	ThumbCMC			ThumbMCP			ThumbIP			ThumbTip			IndexMCP			IndexPIP			IndexTip			MiddleMCP			MiddlePIP			MiddleTip			RingMCP			RingPIP			RingTip			PinkyMCP			PinkyPIP			PinkyTip			BackHand1			BackHand2			BackHand3	
		X0	Y0	Z0	X1	Y1	Z1	X2	Y2	Z2	X3	Y3	Z3	X4	Y4	Z4	X5	Y5	Z5	X6	Y6	Z6	X7	Y7	Z7	X8	Y8	Z8	X9	Y9	Z9	X10	Y10	Z10	X11	Y11	Z11	X12	Y12	Z12	X13	Y13	Z13	X14	Y14	Z14	X15	Y15	Z15	X16	Y16	Z16	X17	Y17	Z17	X18	Y18	Z18	
54	0.45	-195.717	65.7482	85.0289	-179.523	83.7235	72.2945	-167.542	96.6008	53.7021	-153.011	102.243	41.6734	-170.558	55.4419	27.9536	-147.686	74.9076	19.4227	-135.31	90.9448	30.6483	-155.679	37.0219	27.3625	-135.078	59.5203	20.2508	-133.087	77.6486	45.8232	-146.192	25.9008	39.9878	-126.506	46.0738	33.4493	-131.317	63.0186	52.1896	-137.386	18.1399	53.4472	-123.597	35.4742	45.317	-130.679	54.7846	59.7176	-174.126	14.8246	77.1893	-183.679	14.4815	101.971	-198.238	34.4198	78.195	
55	0.458333	-194.253	40.813	82.4036	-182.389	63.244	63.8149	-169.898	72.1933	48.7704	-158.519	85.6046	33.1473	-163.152	29.3381	28.5208	-144.389	50.6827	18.8128	-134.311	73.0393	28.993	-147.257	16.0668	28.8959	-128.475	39.2382	18.2934	-126.962	58.8979	40.9224	-138.495	7.76831	44.8433	-118.53	30.7106	35.3505	-126.628	48.1746	51.6127	-125.488	1.31428	63.2852	-113.783	17.4841	49.9849	-124.233	41.725	63.6703	-165.413	-0.706292	80.7441	-177.907	-2.2494	100.694	-192.031	7.79322	79.7933	
56	0.466667	-198.542	30.3887	80.0713	-189.272	52.7505	62.6774	-178.25	64.0042	45.2626	-166.825	74.732	33.0629	-164.655	20.6516	26.8686	-149.868	41.6406	17.8111	-141.548	64.2878	25.3282	-146.141	6.00638	29.6342	-128.29	29.446	21.0935	-130.945	52.1781	43.0128	-137.364	-0.563998	48.5307	-119.879	21.7909	36.8255	-131.344	41.8128	51.3381	-129.063	-3.70388	68.3351	-113.583	8.97141	53.099	-123.209	34.7383	61.5337	-160.157	-11.6215	81.7762	-176.579	-12.8836	107.161	-190.665	-0.22423	77.916	
57	0.475	-203.892	34.1327	86.6987	-193.401	54.0423	67.67	-178.749	63.5962	47.9619	-167.833	73.1519	35.3365	-170.437	26.8202	27.1874	-153.392	44.6306	19.8314	-144.944	68.6335	27.8207	-152.882	8.63024	31.1233	-135.945	27.9112	19.9558	-137.287	55.5205	43.0701	-142.601	2.14196	44.0948	-128.6	22.7732	33.5082	-133.618	42.9736	47.878	-133.98	-2.36387	67.9347	-117.484	13.2484	53.2697	-124.602	37.1847	58.1232	-167.456	-6.08048	85.4429	-185.174	-7.2914	104.678	-196.898	2.23278	82.4017	
58	0.483333	-209.902	54.5205	89.2431	-193.369	70.727	70.6255	-182.704	79.9549	53.4041	-167.535	86.9402	36.0865	-182.39	40.7025	29.5838	-163.189	56.8696	19.2278	-146.344	80.7522	29.6073	-166.984	22.5682	31.5168	-145.748	44.6004	19.7665	-143.165	66.5942	42.1346	-157.212	12.5824	43.9857	-138.812	31.9389	31.4242	-139.817	51.9655	45.7435	-146.592	4.92955	62.3201	-132.847	17.3671	45.8957	-133.429	44.3271	54.1791	-181.946	7.76634	79.2342	-192.966	5.95564	106.018	-205.791	18.5556	81.9867	
59	0.491667	-208.093	80.1423	90.2989	-189.118	93.0784	69.8459	-177.359	99.5721	51.5054	-162.215	101.223	33.9111	-192.325	67.8364	22.4908	-170.917	82.326	13.9136	-151.763	91.4626	22.7242	-181.989	43.5627	21.3652	-161.37	59.0909	10.0703	-147.411	74.3865	35.9408	-173.997	30.2477	31.4372	-155.115	48.2143	21.4822	-147.472	64.8441	43.4496	-165.8	19.4877	52.2988	-147.752	30.7063	33.8426	-144.231	50.5218	41.9674	-194.461	24.0815	78.1797	-203.71	24.6641	100.167	-217.99	47.6609	79.4745	
60	0.5	-200.048	98.1523	79.1292	-180.845	105.878	57.389	-167.948	111.808	33.5817	-157.514	108.964	18.16	-201.292	84.773	14.8031	-177.628	90.57	-0.85862	-148.49	96.2889	7.28784	-199.3	65.357	7.06567	-174.953	69.8405	-6.61006	-153.996	84.2855	18.5704	-192.991	45.482	15.339	-169.386	54.4283	2.37212	-156.896	68.9751	20.0045	-186.058	32.2362	31.1058	-169.279	35.2892	12.6606	-153.111	54.1814	17.5267	-207.765	44.8736	59.1063	-211.677	46.3868	88.694	-217.691	66.7002	70.2177	
61	0.508333	-181.55	101.052	53.4277	-162.603	103.518	29.9468	-153.007	105.011	8.49673	-144.613	102.065	-13.8333	-199.496	90.4151	-8.02602	-176.743	89.4311	-27.2174	-148.876	89.4897	-24.1919	-205.097	73.1043	-16.6166	-180.463	70.1782	-31.9099	-157.14	74.2174	-10.7181	-205.136	50.6577	-6.79112	-184.117	55.8886	-25.3289	-161.97	59.1725	-7.2831	-201.88	33.8285	4.1185	-186.8	37.8604	-16.0846	-167.065	50.558	-10.523	-211.404	53.2095	37.2213	-209.522	55.5522	63.8713	-212.888	83.8881	52.4986	
62	0.516667	-163.538	88.7533	23.9008	-149.311	84.9359	-5.69214	-142.964	83.2719	-23.4872	-138.472	80.3595	-47.9423	-191.262	88.4841	-38.3167	-175.529	81.9279	-57.6958	-148.879	67.1751	-58.7745	-205.199	72.9835	-40.2835	-183.634	65.2308	-61.4577	-160.613	56.0788	-42.5978	-210.969	52.9445	-33.9939	-193.645	52.0029	-53.713	-168.219	47.4677	-37.0767	-210.566	36.3841	-20.1654	-199.142	33.801	-43.0805	-172.468	37.8182	-40.4766	-208.674	57.602	17.5945	-202.35	58.1504	39.3679	-198.686	81.9702	25.2603	
63	0.525	-154.695	76.037	-0.489972	-141.355	70.646	-27.0318	-136.252	69.0377	-47.8373	-131.803	65.3439	-70.1968	-185.51	83.4399	-59.0724	-174.046	73.4162	-83.5969	-153.085	57.2853	-90.7873	-203.249	68.0187	-62.4616	-188.411	57.8311	-83.7861	-162.015	47.4131	-66.9495	-209.957	52.1936	-50.3561	-195.354	45.5662	-74.3444	-173.021	35.6555	-62.2497	-211.384	37.0042	-37.4649	-205.302	28.854	-62.3201	-177.779	31.3048	-61.1098	-203.351	56.3755	-4.87947	-200.828	51.9075	21.0664	-190.336	79.3924	1.69286	
64	0.533333	-152.436	70.8701	-14.0705	-133.932	63.9273	-34.5265	-124.301	64.5467	-60.4568	-119.042	59.5895	-76.3553	-184.289	80.7833	-73.1098	-178.617	74.393	-99.5877	-164.966	63.2933	-113.743	-200.122	68.1495	-73.9956	-188.314	50.957	-97.0952	-163.925	37.163	-81.8695	-211.102	49.6612	-64.3119	-197.82	40.4738	-86.6097	-173.011	30.8473	-74.9474	-210.473	36.0151	-51.0346	-204.893	26.7793	-74.0502	-180.549	19.3974	-72.9277	-202.31	54.4153	-17.4973	-196.077	53.3351	6.72948	-183.016	75.5729	-11.8701	
65	0.541667	-149.453	70.8902	-16.3477	-130.77	63.7305	-39.4516	-118.761	61.6803	-52.4296	-107.548	61.3079	-71.0386	-180.949	82.1303	-70.9725	-181.794	77.4029	-100.377	-174.931	69.1258	-123.61	-198.41	68.3638	-77.1964	-191.164	49.6761	-100.245	-168.846	32.5573	-90.2513	-206.236	52.9023	-68.7886	-195.212	39.4965	-89.5604	-174.14	26.5632	-78.9986	-211.036	35.9616	-56.7532	-205.137	23.1662	-75.3113	-178.286	22.4688	-75.5131	-200.026	55.1439	-19.4703	-199.733	55.7246	1.71401	-184.299	75.536	-14.0431	
66	0.55	-150.407	72.6194	-12.8498	-130.884	66.4963	-30.4644	-118.515	64.584	-49.3112	-104.832	64.1546	-64.8871	-181.867	82.7348	-68.1012	-182.989	80.0998	-95.8392	-177.012	72.4734	-119.396	-201.83	66.5604	-74.8721	-193.05	55.6323	-99.3061	-167.568	33.7879	-86.8085	-208.954	50.9347	-66.3392	-199.14	36.801	-87.6456	-175.915	27.8179	-79.1628	-213.167	34.0994	-49.8822	-205.666	25.6014	-72.8209	-181.763	16.432	-71.3992	-203.107	57.1373	-16.9869	-200.508	55.2898	3.90136	-186.309	77.1298	-11.0825	
67	0.558333	-155.693	72.1238	-7.16218	-137.118	63.9567	-25.2825	-123.454	63.9825	-45.5777	-115.976	58.3771	-65.0358	-187.594	77.9127	-64.1054	-183.844	75.504	-90.3281	-173.497	65.3421	-111.547	-203.791	62.3579	-68.9876	-192.928	48.3411	-93.2375	-170.454	30.7041	-80.9451	-211.759	47.9134	-61.7275	-196.932	34.337	-82.4273	-175.449	25.8028	-70.4849	-217.059	29.9464	-51.0491	-204.859	20.0714	-69.7913	-179.578	17.8057	-63.5468	-210.006	54.1577	-12.9663	-204.711	53.2982	7.63248	-191.452	74.1443	-6.7967	
68	0.566667	-158.74	64.2792	-0.168562	-140.85	56.2985	-22.1158	-134.623	53.0427	-41.4336	-125.551	47.3992	-63.3903	-184.765	71.6989	-63.1651	-176.099	61.2264	-89.061	-163.619	43.8415	-98.5491	-203.806	56.981	-65.7777	-192.338	41.6733	-87.2853	-167.711	25.4649	-74.7984	-211.014	43.8243	-56.7805	-197.439	29.3919	-77.6508	-177.649	16.0173	-67.1357	-219.903	24.0291	-45.8225	-205.233	17.1332	-66.0929	-181.493	14.4209	-60.8202	-212.608	49.382	-12.4416	-212.084	47.6903	13.6762	-195.08	66.9219	-3.03168	
69	0.575	-158.443	50.5953	5.38715	-142.262	42.7273	-21.5447	-134.974	39.4169	-42.26	-130.361	31.4496	-61.7338	-172.794	59.8717	-60.4796	-164.049	41.7306	-81.2217	-151.765	21.0327	-84.6153	-196.179	46.4187	-65.6883	-185.912	30.2701	-84.2516	-162.736	8.86368	-71.0189	-208.967	32.8469	-54.7076	-197.7	19.3827	-74.9791	-174.432	6.1523	-66.6679	-218.145	18.8216	-43.478	-204.893	10.3902	-62.6852	-184.012	0.430528	-61.1537	-211.167	42.2714	-5.28558	-208.969	40.5228	20.4491	-190.298	59.1964	1.53733	
70	0.583333	-144.52	36.0045	9.61463	-135.24	24.2311	-14.1408	-126.785	18.9101	-37.0723	-125.063	11.5255	-57.9709	-156.903	41.3335	-57.2138	-149.47	26.199	-74.8896	-142.312	-4.78614	-78.3227	-179.385	35.8396	-59.8835	-175.756	17.4567	-81.7884	-157.354	-7.42917	-78.7099	-199.067	24.9201	-50.5265	-187.045	8.86039	-74.1599	-170.344	-13.1101	-70.3642	-211.615	12.2759	-40.3676	-206.512	0.012212	-58.006	-181.741	-12.6385	-62.1064	-200.706	35.1151	-6.04406	-194.65	37.4689	20.9229	-175.832	48.9333	4.33823	
71	0.591667	-134.448	19.7274	12.1897	-121.05	5.69785	-4.75859	-118.427	-0.438533	-28.6771	-112.428	-9.40947	-49.1379	-147.282	19.812	-52.6337	-139.65	2.46688	-71.8617	-135.373	-23.2385	-78.7509	-167.462	20.8604	-55.8445	-162.95	4.81837	-79.4251	-154.719	-26.0016	-87.1735	-184.909	13.323	-49.8978	-183.246	1.52243	-69.4198	-171.671	-25.0361	-80.0483	-201.535	3.99923	-31.3633	-199.667	-6.63539	-54.6762	-186.382	-23.5788	-68.2674	-187.396	25.5361	-5.14756	-185.862	29.6907	21.589	-159.222	37.1916	5.01723	
72	0.6	-126.934	0.407676	25.0482	-114.801	-12.5458	3.61122	-106.042	-18.6168	-18.5732	-104.821	-25.806	-38.4702	-137.359	2.39012	-46.0107	-134.281	-10.1938	-66.511	-128.883	-29.7633	-80.4955	-159.792	1.53102	-52.3868	-159.063	-12.5313	-75.6623	-155.999	-32.6756	-91.7629	-178.221	-2.78941	-43.4883	-175.959	-12.7347	-66.9715	-170.43	-30.3165	-84.1304	-191.618	-8.10347	-27.5333	-197.137	-16.7805	-47.7078	-195.935	-30.492	-66.8814	-180.297	12.6265	2.62254	-176.769	17.4894	29.3515	-152.9	19.3174	12.7537	
73	0.608333	-127.899	-9.13374	32.4208	-115.724	-20.3651	8.74201	-105.518	-27.8141	-13.5077	-96.4788	-35.5603	-26.5677	-132.764	-8.79463	-36.9502	-127.856	-18.7974	-60.2838	-128.881	-35.0945	-80.3118	-153.475	-10.7532	-44.1443	-155.4	-20.1527	-65.692	-155.053	-36.9562	-91.4033	-172.865	-14.1775	-36.0946	-172.084	-24.5953	-60.9903	-172.296	-35.8612	-80.6933	-191.251	-19.2687	-25.8998	-197.538	-27.2277	-41.9983	-193.669	-35.5188	-62.7712	-173.753	1.85005	4.93299	-178.938	6.65381	29.0023	-150.903	8.26992	15.8367	
